<?xml version="1.0" encoding="UTF-8" standalone="no"?>
<!-- Created with Inkscape (http://www.inkscape.org/) -->

<svg
   xmlns:dc="http://purl.org/dc/elements/1.1/"
   xmlns:cc="http://creativecommons.org/ns#"
   xmlns:rdf="http://www.w3.org/1999/02/22-rdf-syntax-ns#"
   xmlns:svg="http://www.w3.org/2000/svg"
   xmlns="http://www.w3.org/2000/svg"
   xmlns:sodipodi="http://sodipodi.sourceforge.net/DTD/sodipodi-0.dtd"
   xmlns:inkscape="http://www.inkscape.org/namespaces/inkscape"
   version="1.0"
   width="200.87819"
   height="100.54276"
   id="svg2"
   inkscape:version="0.48.4 r9939"
   sodipodi:docname="golden_key.svg">
  <sodipodi:namedview
     pagecolor="#ffffff"
     bordercolor="#666666"
     borderopacity="1"
     objecttolerance="10"
     gridtolerance="10"
     guidetolerance="10"
     inkscape:pageopacity="0"
     inkscape:pageshadow="2"
     inkscape:window-width="1280"
     inkscape:window-height="979"
     id="namedview29"
     showgrid="false"
     fit-margin-top="0"
     fit-margin-left="0"
     fit-margin-right="0"
     fit-margin-bottom="0"
     inkscape:zoom="1.88116"
     inkscape:cx="157.08896"
     inkscape:cy="45.393219"
     inkscape:window-x="1916"
     inkscape:window-y="-1"
     inkscape:window-maximized="1"
     inkscape:current-layer="svg2" />
  <defs
     id="defs4" />
  <g
     transform="matrix(-0.59625714,0.84868101,-0.84374962,-0.59279249,554.54919,46.773636)"
     id="g2321"
     style="fill:#000000">
    <path
       d="m 255.20992,367.51684 c -1.80351,0.40859 -2.37949,2.34855 -4.09283,2.82109 -2.61016,1.46809 -4.57521,4.26314 -2.80517,4.87047 1.04316,0.65217 1.84518,1.45026 1.74125,2.79694 1.75781,0.62624 1.66511,2.821 3.26311,3.60721 0.80406,2.09775 2.82936,3.20602 3.63828,5.27782 1.47292,1.2494 2.07493,3.39475 3.74317,4.33642 0.0946,1.61301 1.54238,2.3934 2.14621,3.68602 1.3236,1.60641 2.71407,3.23892 3.70231,5.06006 0.70585,1.41775 2.46399,2.10836 2.71077,3.80947 1.30506,0.70844 1.79059,1.9206 2.32664,3.12958 1.20693,1.2575 2.04608,2.74792 3.0991,4.10636 0.0269,1.79958 2.60122,2.04294 2.55095,3.92562 0.92892,1.0124 2.26947,1.81956 2.3848,3.31393 1.23218,0.34303 1.12354,2.00473 2.37744,2.32816 -0.26777,1.40279 1.35866,1.72568 1.63707,2.86851 0.90985,0.0289 0.6755,0.66294 0.84508,1.23529 0.99123,0.59489 1.24871,2.0082 2.39037,2.36913 0.003,2.11427 2.4524,2.66531 2.82629,4.54721 0.97263,0.9175 1.90934,1.82431 2.18152,3.17557 1.17957,0.28844 0.35611,1.97966 2.03855,1.79165 0.12952,0.84392 0.50569,1.63744 1.22373,2.15262 -0.42046,1.1536 1.29212,0.78202 1.01124,1.84699 0.81404,0.85305 3.61584,0.01 5.13029,-1.71189 1.56545,-0.87527 2.91156,-2.15795 3.81544,-3.21919 1.80344,-0.81835 -0.63665,-0.53946 0.15358,-1.55134 -2.06785,-3.2573 -4.42932,-6.37341 -6.72418,-9.45558 0.35142,-1.37688 -1.54022,-1.38681 -1.66997,-2.59469 -1.33071,-1.53601 -2.1911,-3.65404 -3.7878,-4.85602 0.0879,-2.02471 -2.45782,-2.37761 -2.62667,-4.25056 -1.29767,-1.0344 -1.80197,-2.80377 -3.0071,-3.78639 0.45609,-1.11273 -1.36023,-0.60648 -0.99704,-1.66045 -1.23241,-1.5931 -2.34856,-3.26869 -3.56932,-4.86102 -0.002,-1.03562 -1.47107,-0.90541 -1.08877,-2.09277 -1.16194,-0.53698 -1.40218,-1.93851 -2.47155,-2.45662 0.58998,-1.24196 -1.45801,-0.6804 -0.86616,-1.92496 -1.14258,-1.098 -1.89511,-2.49918 -2.62932,-3.83433 -1.4097,-0.82112 -1.66674,-2.73634 -3.07955,-3.44991 0.0405,-1.93779 -2.29347,-2.46427 -2.32515,-4.39873 -1.71366,-0.67955 -1.75558,-2.87536 -3.34793,-3.5364 -0.1696,-1.8775 -1.81506,-2.89951 -2.64423,-4.39115 -1.01063,-0.0487 -0.11327,-1.34405 -1.05111,-1.52046 -1.84912,-2.06765 -2.8877,-4.83836 -5.06254,-6.6507 -0.074,-0.68648 -0.45274,-1.57354 -1.95383,-1.15509 -0.36238,0.0665 -0.73552,0.14688 -1.13699,0.30216 z"
       id="path2323"
       style="fill:#000000;stroke:none"
       inkscape:connector-curvature="0" />
    <path
       d="m 307.34649,350.5119 c -1.02828,1.03171 -1.34768,2.88895 -3.24128,2.98434 -1.26956,0.71625 -1.77876,2.1053 -3.37962,2.23332 -1.59399,1.1869 -3.03304,2.52709 -4.66427,3.43891 -0.77825,1.40073 -3.32835,1.30382 -3.87371,3.0634 -2.37921,0.86253 -3.9302,3.25982 -6.38373,4.03182 -1.53638,1.65709 -3.55752,2.69569 -5.39554,3.57726 -0.22475,4.46467 6.76841,6.59166 5.39554,11.20611 -1.08245,0.34488 -1.85116,0.83349 -2.5693,1.77875 -1.50684,1.73789 -3.6955,1.93622 -4.58522,-0.43481 -1.1075,-2.48866 -3.01837,-4.86585 -5.02002,-6.64065 -1.90955,0.29908 -6.16379,2.14493 -4.17017,4.62474 2.01345,2.20776 3.54286,5.12658 5.65246,7.03593 1.0153,3.69517 4.9948,5.91539 6.18609,9.50642 1.98879,0.55499 2.33062,2.49877 3.37962,3.9923 1.45773,1.33259 1.91054,3.8097 3.7749,5.00026 0.81987,2.12659 2.76634,3.2574 3.79466,5.41529 0.90219,1.31408 2.08107,1.7332 2.2926,3.35986 1.72073,2.8615 4.58272,5.05649 5.73152,8.16247 1.06199,0.44457 1.91645,1.30048 2.72742,1.75899 2.82086,-0.37339 4.26302,-3.98548 1.81827,-5.8501 -1.24041,-1.79766 -2.20523,-3.82523 -3.69584,-5.53389 1.71862,-1.56738 3.90492,-3.22789 6.16632,-3.59702 2.4999,2.06691 3.26035,6.55892 6.58137,7.49051 1.9916,-0.082 2.05261,-2.60496 4.01206,-2.47049 3.02564,-2.11549 6.04286,-4.5791 8.99256,-6.68018 1.90717,-0.32914 2.85,-2.51511 4.90144,-3.0634 2.80355,-1.95798 5.72681,-3.81434 8.12294,-6.18609 0.28349,-1.64985 -1.81864,-2.69666 -2.3519,-4.22946 -1.7109,-3.45846 -5.74106,-0.52471 -7.15451,1.60087 -0.91484,0.53874 -2.08805,0.56519 -2.47049,1.71945 -3.16136,2.39611 -6.42408,-1.75656 -6.48254,-4.7038 1.31329,-0.87184 3.03033,-1.27721 3.81442,-2.74717 2.3403,-0.48337 3.53524,-3.08581 5.81058,-3.69584 1.11827,-1.3812 -0.15165,-2.61214 -1.04749,-3.47844 -0.43321,-2.12492 -2.94494,-5.29753 -4.98049,-2.70765 -1.66466,1.60682 -3.49324,2.26598 -5.02002,3.83419 -2.58349,1.21915 -4.61191,3.15523 -6.68018,4.9212 -1.70656,0.32748 -4.57505,2.47928 -2.23332,4.01206 0.91048,2.24849 3.08273,3.80218 3.85395,6.04774 -0.60243,2.17053 -3.12347,2.78496 -4.66427,4.09112 -4.30396,0.3244 -4.85383,-6.2884 -8.71586,-6.91735 -1.19926,1.86606 -3.53687,3.72504 -5.92916,3.75513 -2.45961,-1.4568 -5.12748,-4.38025 -5.15837,-7.31262 2.22989,-0.44427 3.77542,-2.49848 5.94893,-3.0634 1.46607,-1.90551 -0.93725,-3.53579 -1.46253,-5.17813 -1.9829,-0.75976 -3.64334,-4.30166 -0.73126,-5.27695 1.38201,-0.49963 2.58202,-1.03483 3.39938,-2.29261 2.34544,-0.0158 3.99752,2.99675 5.03979,4.82238 0.72192,2.47806 4.28076,2.08384 5.09907,0.13835 1.59239,0.0728 1.77423,-1.98949 3.51797,-1.89733 1.31881,-0.60113 1.64874,-2.1276 3.20174,-2.25308 1.59995,-1.39424 3.01272,-2.86285 5.02002,-3.57726 1.0536,-0.99975 4.43035,-2.30124 2.17403,-3.93301 -1.46811,-1.51396 -1.97314,-5.01786 -4.46663,-5.05955 -1.1037,1.29341 -2.62812,1.9513 -4.05159,2.64836 -0.70278,1.50182 -3.38301,1.20834 -3.79467,3.18198 -2.78143,2.8044 -5.47846,-1.18762 -6.2849,-3.63655 -2.07313,-0.26827 0.22345,-3.35094 1.40323,-3.71561 1.39491,-0.59587 1.4137,-2.33041 3.10293,-2.15426 1.64027,-0.86464 2.80252,-2.40118 4.62474,-2.80647 0.51253,-3.00097 -2.43732,-5.74424 -4.03183,-8.06365 -0.22109,-0.19867 -0.5518,-0.33513 -0.84984,-0.27669 z"
       id="path2325"
       style="fill:#000000;stroke:none"
       inkscape:connector-curvature="0" />
    <path
       d="m 253.89302,360.78821 c -1.29983,0.22293 -1.44527,1.87404 -3.02387,1.9171 -1.77476,1.46328 -3.7767,2.53687 -5.6327,3.7749 -0.72394,1.19595 -3.01487,1.44025 -2.64836,3.51796 0.0883,3.66325 4.86616,1.8566 6.64066,0.55339 2.70741,-2.5375 7.11612,-3.75484 8.61704,-7.41145 -0.60808,-1.55844 -2.29849,-2.52035 -3.95277,-2.3519 z"
       id="path2327"
       style="fill:#000000;stroke:none"
       inkscape:connector-curvature="0" />
    <path
       d="m 245.77007,352.28975 c -2.30083,2.04882 -6.26388,3.10414 -8.00436,6.06751 0.27929,3.65447 4.14814,8.51865 8.22177,6.32443 2.31107,-1.78789 6.62955,-4.00731 4.76309,-7.56955 -1.23895,-1.75374 -2.77921,-4.29058 -4.9805,-4.82239 z"
       id="path2329"
       style="fill:#000000;stroke:none"
       inkscape:connector-curvature="0" />
    <path
       d="m 244.24826,344.95736 c -1.22157,0.58052 -1.5291,2.25398 -3.18199,2.17403 -1.6758,1.75967 -4.37832,2.84371 -5.73152,4.74332 -2.20533,-1.9e-4 -5.42973,3.30553 -2.52977,4.78286 4.44751,1.3228 8.24354,-3.23773 11.58162,-5.31648 2.16921,-0.58715 4.90842,-3.53768 1.99615,-5.1979 -0.61032,-0.49256 -1.30954,-1.17565 -2.13449,-1.18583 z"
       id="path2331"
       style="fill:#000000;stroke:none"
       inkscape:connector-curvature="0" />
    <path
       d="m 234.58373,331.85392 c 0.0449,1.48821 -2.08452,0.92365 -2.29261,2.29261 -2.25453,0.39738 -3.82456,2.4892 -5.96869,3.0634 -0.45704,1.41912 -3.06812,1.38508 -2.70764,3.37962 -0.48603,0.9036 -1.69222,1.53087 -0.79056,2.74718 1.60534,4.11522 6.01467,9.24918 10.85036,7.54979 1.02439,-1.81928 3.90281,-1.9347 5.11884,-3.87372 3.39234,-1.53507 5.5121,-6.13534 2.52977,-9.05184 -1.9856,-1.81025 -3.26689,-4.53251 -5.77104,-5.49436 -0.11945,-0.35826 -0.47984,-1.19519 -0.96843,-0.61268 z"
       id="path2333"
       style="fill:#000000;stroke:none"
       inkscape:connector-curvature="0" />
    <path
       d="m 230.84836,326.04335 c -1.44238,1.1901 -2.89919,1.94377 -4.52593,2.82623 -1.51395,1.84833 -4.29529,2.24684 -5.53388,4.03183 -3.55041,0.56271 -2.22866,7.18996 1.56135,4.72356 2.85778,-1.03436 4.74293,-3.70968 7.54979,-4.64451 1.40396,-1.63622 5.42906,-2.92182 3.08317,-5.55364 -0.40785,-0.76334 -1.18889,-1.55577 -2.1345,-1.38347 z"
       id="path2335"
       style="fill:#000000;stroke:none"
       inkscape:connector-curvature="0" />
    <path
       d="m 219.44461,317.2089 c -4.08971,0.16088 -4.80845,5.72159 -3.47844,8.67634 1.31353,0.43409 0.84992,2.88494 2.76694,2.88552 2.60852,0.55837 6.94453,0.96393 7.15452,-2.64836 1.71746,-0.80557 1.07728,-3.63356 -0.25693,-4.38757 0.1045,-3.05973 -3.52244,-4.7152 -6.18609,-4.52593 z"
       id="path2337"
       style="fill:#000000;stroke:none"
       inkscape:connector-curvature="0" />
    <path
       d="m 219.24697,276.29771 c -2.7878,0.19283 -6.06044,-0.23803 -8.26129,1.54158 -2.97488,0.22213 -5.56171,1.96065 -8.45893,2.29261 -0.89294,1.61693 -3.65692,1.16859 -4.50616,2.80647 -1.59239,-0.0728 -1.77424,1.98948 -3.51797,1.89733 -1.31956,0.70823 -1.75756,2.10836 -3.34009,2.37166 -4.09998,3.29054 -8.18026,7.18925 -10.88989,11.56186 -1.22905,0.39615 -0.5843,2.05356 -1.79851,2.47048 -0.49916,1.85393 -1.11073,3.56586 -2.11473,5.11884 -0.89639,2.89009 -0.21196,6.31563 -1.99615,8.6961 -0.31244,1.81995 1.61436,2.73299 1.22535,4.64451 0.18393,4.12607 1.19577,8.37582 3.08317,11.91761 1.45574,0.39734 1.35714,2.8337 2.83583,3.64807 4.37379,5.1821 10.97895,8.88288 17.9555,7.63929 4.05437,-0.33362 8.56661,0.36594 11.99691,-2.01811 4.1295,-1.35561 6.50043,-7.15145 4.72356,-10.98871 -1.1653,-0.33408 -0.61629,-2.34484 -2.11473,-2.58907 -0.86103,-1.4179 -1.86891,-3.04493 -3.95277,-2.58906 -2.29454,-0.30621 -5.85794,-0.0359 -5.43506,3.18198 -0.40718,2.0097 1.60303,3.5765 2.17402,4.96073 -3.40625,1.98394 -8.01376,2.03923 -11.83855,1.423 -3.74849,-0.86001 -6.83604,-3.87103 -8.59728,-6.97665 -1.20345,-0.28054 -0.32029,-2.44545 -1.73922,-2.88552 -0.64324,-4.51601 -0.89793,-9.64407 0.11858,-14.07187 1.51624,-1.44971 2.30134,-3.70041 4.30853,-4.94096 2.82452,-1.51801 5.36215,-3.84556 8.71586,-4.15041 2.18646,-1.61683 5.05775,-0.62993 7.39168,-1.89733 1.49865,-1.35478 0.90564,-4.01283 2.66812,-5.02002 1.46434,-3.29848 5.19964,-5.5114 8.18224,-7.41145 2.1,-1.49873 4.98214,-0.81365 6.97664,-2.11474 1.85878,-0.75209 5.00377,-1.04534 6.56161,0.55339 1.71081,0.38946 3.35542,0.77862 4.40734,2.05544 2.40288,0.69353 3.79998,3.71407 5.43506,5.43507 0.0875,1.55396 2.03377,2.16698 1.66016,3.9923 -0.20932,2.84137 2.79349,5.78198 1.00796,8.36011 -1.14129,2.72266 -1.45782,6.05408 -4.07136,8.00436 -1.29462,1.22166 -3.64347,3.17208 -5.356,2.27285 -0.2331,-2.03017 0.0381,-5.76652 -3.14246,-5.31648 -3.18082,-0.51951 -6.26082,3.45469 -4.07135,6.08727 0.70448,7.19655 9.95827,9.47729 15.43557,6.00821 1.61483,-0.4606 3.23287,-0.95782 3.71561,-2.76694 1.48594,-0.93576 2.77712,-2.1063 3.16222,-3.93301 2.34807,-2.04008 1.08896,-6.07027 2.86576,-8.51822 0.34293,-2.4761 0.70017,-5.63569 -0.88938,-7.56956 -0.0773,-3.68385 -1.93541,-7.24231 -3.91324,-10.05981 -2.83487,-3.72845 -6.39198,-7.4851 -10.5539,-9.76334 -2.14608,0.15019 -2.91297,-1.94817 -4.88168,-1.87757 -2.7651,-2.38557 -7.38298,-1.03041 -10.8305,-1.48644 l -0.33608,0.004 z"
       id="path2339"
       style="fill:#000000;stroke:none"
       inkscape:connector-curvature="0" />
  </g>
  <path
     d="m 156.56779,28.610135 c 0,0 10.77393,9.096578 5.68617,16.140962 l -6.69235,9.266062 -9.79434,0.240808 -3.47252,-3.599085 -4.03428,-2.235704 -13.02792,-1.470299 -14.67017,-0.810824 -16.488648,-0.505783 -9.58689,-1.196134 0.91506,-10.435732 18.307168,0.200731 27.0835,-1.933049 15.50286,0.549307 4.98164,-2.389037 5.29072,-1.822223 z"
     id="path2341"
     style="fill:#808000;fill-rule:evenodd;stroke:none"
     inkscape:connector-curvature="0" />
  <g
     transform="matrix(-0.60612701,0.86272926,-0.86713059,-0.60921924,565.73659,47.88398)"
     id="g2310"
     style="fill:#ffff00">
    <path
       d="m 255.21461,367.52574 c -1.81366,0.38706 -2.37875,2.35509 -4.10109,2.8088 -2.61801,1.45385 -4.57577,4.27083 -2.78789,4.91878 1.05598,0.6818 1.87017,1.50839 1.776,2.87939 1.77572,0.66702 1.69947,2.90267 3.31545,3.73014 0.8264,2.1514 2.87535,3.31413 3.70646,5.43916 1.49358,1.29757 2.11681,3.49418 3.80475,4.48127 0.10792,1.64572 1.5725,2.46481 2.19091,3.79225 1.34595,1.65905 2.75946,3.34578 3.76925,5.21823 0.72215,1.45667 2.49871,2.18931 2.7606,3.9273 1.32026,0.74342 1.81885,1.98693 2.36832,3.22801 1.22569,1.30149 2.08269,2.83439 3.15412,4.23626 0.0411,1.83479 2.63645,2.12486 2.60051,4.04309 0.94371,1.04711 2.30049,1.89174 2.42835,3.41686 1.24399,0.36977 1.14752,2.0618 2.41324,2.41194 -0.2588,1.42552 1.3822,1.78119 1.6716,2.95064 0.91681,0.0443 0.68568,0.68677 0.86098,1.27294 1.00322,0.62256 1.27365,2.06738 2.42658,2.4539 0.0197,2.15517 2.49138,2.75683 2.88275,4.68118 0.98699,0.95111 1.93772,1.89071 2.22247,3.27252 1.19056,0.31326 0.37422,2.02372 2.06764,1.85953 0.13707,0.86233 0.52223,1.67732 1.24962,2.21417 -0.41456,1.16903 1.30779,0.81821 1.03315,1.89917 0.82673,0.88282 3.64269,0.0687 5.1549,-1.66123 1.5702,-0.86664 2.91626,-2.15213 3.81855,-3.21912 1.81039,-0.80473 -0.64559,-0.56027 0.14259,-1.5788 -2.10861,-3.35397 -4.51191,-6.56882 -6.84784,-9.74798 0.34327,-1.39774 -1.56246,-1.43873 -1.7026,-2.67206 -1.35257,-1.5874 -2.23588,-3.76039 -3.85379,-5.01165 0.0727,-2.06239 -2.49459,-2.46365 -2.67933,-4.37553 -1.31535,-1.07556 -1.83721,-2.88734 -3.05894,-3.90862 0.45077,-1.12678 -1.37504,-0.64039 -1.0174,-1.70879 -1.25397,-1.644 -2.39149,-3.37016 -3.63372,-5.01318 -0.01,-1.05566 -1.48904,-0.9469 -1.11318,-2.15097 -1.17474,-0.56631 -1.42771,-1.99884 -2.50904,-2.54441 0.58464,-1.25632 -1.47412,-0.71733 -0.88762,-1.97627 -1.15962,-1.13787 -1.92866,-2.57839 -2.67875,-3.95132 -1.42655,-0.85999 -1.70045,-2.8164 -3.12929,-3.56681 0.0256,-1.97456 -2.32971,-2.54931 -2.37673,-4.52165 -1.73167,-0.72064 -1.79105,-2.95955 -3.40036,-3.65935 -0.18552,-1.91654 -1.85115,-2.98514 -2.69811,-4.51913 -1.01849,-0.0661 -0.12461,-1.37186 -1.07077,-1.56698 -1.87896,-2.13777 -2.94688,-4.97896 -5.15198,-6.8618 -0.08,-0.70095 -0.46839,-1.61133 -1.97732,-1.2093 -0.36455,0.0618 -0.73982,0.13773 -1.14305,0.28945 z"
       id="path2292"
       style="fill:#ffff00;stroke:none"
       inkscape:connector-curvature="0" />
    <path
       d="m 308.2492,352.65174 c -1.02828,1.03171 -1.34768,2.88895 -3.24128,2.98434 -1.26956,0.71625 -1.77876,2.1053 -3.37962,2.23332 -1.59399,1.1869 -3.03304,2.52709 -4.66427,3.43891 -0.77825,1.40073 -3.32835,1.30382 -3.87371,3.0634 -2.37921,0.86253 -3.9302,3.25982 -6.38373,4.03182 -1.53638,1.65709 -3.55752,2.69569 -5.39554,3.57726 -0.22475,4.46467 6.76841,6.59166 5.39554,11.20611 -1.08245,0.34488 -1.85116,0.83349 -2.5693,1.77875 -1.50684,1.73789 -3.6955,1.93622 -4.58522,-0.43481 -1.1075,-2.48866 -3.01837,-4.86585 -5.02002,-6.64065 -1.90955,0.29908 -6.16379,2.14493 -4.17017,4.62474 2.01345,2.20776 3.54286,5.12658 5.65246,7.03593 1.0153,3.69517 4.9948,5.91539 6.18609,9.50642 1.98879,0.55499 2.33062,2.49877 3.37962,3.9923 1.45773,1.33259 1.91054,3.8097 3.7749,5.00026 0.81987,2.12659 2.76634,3.2574 3.79466,5.41529 0.90219,1.31408 2.08107,1.7332 2.2926,3.35986 1.72073,2.8615 4.58272,5.05649 5.73152,8.16247 1.06199,0.44457 1.91645,1.30048 2.72742,1.75899 2.82086,-0.37339 4.26302,-3.98548 1.81827,-5.8501 -1.24041,-1.79766 -2.20523,-3.82523 -3.69584,-5.53389 1.71862,-1.56738 3.90492,-3.22789 6.16632,-3.59702 2.4999,2.06691 3.26035,6.55892 6.58137,7.49051 1.9916,-0.082 2.05261,-2.60496 4.01206,-2.47049 3.02564,-2.11549 6.04286,-4.5791 8.99256,-6.68018 1.90717,-0.32914 2.85,-2.51511 4.90144,-3.0634 2.80355,-1.95798 5.72681,-3.81434 8.12294,-6.18609 0.28349,-1.64985 -1.81864,-2.69666 -2.3519,-4.22946 -1.7109,-3.45846 -5.74106,-0.52471 -7.15451,1.60087 -0.91484,0.53874 -2.08805,0.56519 -2.47049,1.71945 -3.16136,2.39611 -6.42408,-1.75656 -6.48254,-4.7038 1.31329,-0.87184 3.03033,-1.27721 3.81442,-2.74717 2.3403,-0.48337 3.53524,-3.08581 5.81058,-3.69584 1.11827,-1.3812 -0.15165,-2.61214 -1.04749,-3.47844 -0.43321,-2.12492 -2.94494,-5.29753 -4.98049,-2.70765 -1.66466,1.60682 -3.49324,2.26598 -5.02002,3.83419 -2.58349,1.21915 -4.61191,3.15523 -6.68018,4.9212 -1.70656,0.32748 -4.57505,2.47928 -2.23332,4.01206 0.91048,2.24849 3.08273,3.80218 3.85395,6.04774 -0.60243,2.17053 -3.12347,2.78496 -4.66427,4.09112 -4.30396,0.3244 -4.85383,-6.2884 -8.71586,-6.91735 -1.19926,1.86606 -3.53687,3.72504 -5.92916,3.75513 -2.45961,-1.4568 -5.12748,-4.38025 -5.15837,-7.31262 2.22989,-0.44427 3.77542,-2.49848 5.94893,-3.0634 1.46607,-1.90551 -0.93725,-3.53579 -1.46253,-5.17813 -1.9829,-0.75976 -3.64334,-4.30166 -0.73126,-5.27695 1.38201,-0.49963 2.58202,-1.03483 3.39938,-2.29261 2.34544,-0.0158 3.99752,2.99675 5.03979,4.82238 0.72192,2.47806 4.28076,2.08384 5.09907,0.13835 1.59239,0.0728 1.77423,-1.98949 3.51797,-1.89733 1.31881,-0.60113 1.64874,-2.1276 3.20174,-2.25308 1.59995,-1.39424 3.01272,-2.86285 5.02002,-3.57726 1.0536,-0.99975 4.43035,-2.30124 2.17403,-3.93301 -1.46811,-1.51396 -1.97314,-5.01786 -4.46663,-5.05955 -1.1037,1.29341 -2.62812,1.9513 -4.05159,2.64836 -0.70278,1.50182 -3.38301,1.20834 -3.79467,3.18198 -2.78143,2.8044 -5.47846,-1.18762 -6.2849,-3.63655 -2.07313,-0.26827 0.22345,-3.35094 1.40323,-3.71561 1.39491,-0.59587 1.4137,-2.33041 3.10293,-2.15426 1.64027,-0.86464 2.80252,-2.40118 4.62474,-2.80647 0.51253,-3.00097 -2.43732,-5.74424 -4.03183,-8.06365 -0.22109,-0.19867 -0.5518,-0.33513 -0.84984,-0.27669 z"
       id="path2294"
       style="fill:#ffff00;stroke:none"
       inkscape:connector-curvature="0" />
    <path
       d="m 253.89302,360.78821 c -1.29983,0.22293 -1.44527,1.87404 -3.02387,1.9171 -1.77476,1.46328 -3.7767,2.53687 -5.6327,3.7749 -0.72394,1.19595 -3.01487,1.44025 -2.64836,3.51796 0.0883,3.66325 4.86616,1.8566 6.64066,0.55339 2.70741,-2.5375 7.11612,-3.75484 8.61704,-7.41145 -0.60808,-1.55844 -2.29849,-2.52035 -3.95277,-2.3519 z"
       id="path2296"
       style="fill:#ffff00;stroke:none"
       inkscape:connector-curvature="0" />
    <path
       d="m 245.77007,352.28975 c -2.30083,2.04882 -6.26388,3.10414 -8.00436,6.06751 0.27929,3.65447 4.14814,8.51865 8.22177,6.32443 2.31107,-1.78789 6.62955,-4.00731 4.76309,-7.56955 -1.23895,-1.75374 -2.77921,-4.29058 -4.9805,-4.82239 z"
       id="path2298"
       style="fill:#ffff00;stroke:none"
       inkscape:connector-curvature="0" />
    <path
       d="m 244.24826,344.95736 c -1.22157,0.58052 -1.5291,2.25398 -3.18199,2.17403 -1.6758,1.75967 -4.37832,2.84371 -5.73152,4.74332 -2.20533,-1.9e-4 -5.42973,3.30553 -2.52977,4.78286 4.44751,1.3228 8.24354,-3.23773 11.58162,-5.31648 2.16921,-0.58715 4.90842,-3.53768 1.99615,-5.1979 -0.61032,-0.49256 -1.30954,-1.17565 -2.13449,-1.18583 z"
       id="path2300"
       style="fill:#ffff00;stroke:none"
       inkscape:connector-curvature="0" />
    <path
       d="m 234.58373,331.85392 c 0.0449,1.48821 -2.08452,0.92365 -2.29261,2.29261 -2.25453,0.39738 -3.82456,2.4892 -5.96869,3.0634 -0.45704,1.41912 -3.06812,1.38508 -2.70764,3.37962 -0.48603,0.9036 -1.69222,1.53087 -0.79056,2.74718 1.60534,4.11522 6.01467,9.24918 10.85036,7.54979 1.02439,-1.81928 3.90281,-1.9347 5.11884,-3.87372 3.39234,-1.53507 5.5121,-6.13534 2.52977,-9.05184 -1.9856,-1.81025 -3.26689,-4.53251 -5.77104,-5.49436 -0.11945,-0.35826 -0.47984,-1.19519 -0.96843,-0.61268 z"
       id="path2302"
       style="fill:#ffff00;stroke:none"
       inkscape:connector-curvature="0" />
    <path
       d="m 230.84836,326.04335 c -1.44238,1.1901 -2.89919,1.94377 -4.52593,2.82623 -1.51395,1.84833 -4.29529,2.24684 -5.53388,4.03183 -3.55041,0.56271 -2.22866,7.18996 1.56135,4.72356 2.85778,-1.03436 4.74293,-3.70968 7.54979,-4.64451 1.40396,-1.63622 5.42906,-2.92182 3.08317,-5.55364 -0.40785,-0.76334 -1.18889,-1.55577 -2.1345,-1.38347 z"
       id="path2304"
       style="fill:#ffff00;stroke:none"
       inkscape:connector-curvature="0" />
    <path
       d="m 219.44461,317.2089 c -4.08971,0.16088 -4.80845,5.72159 -3.47844,8.67634 1.31353,0.43409 0.84992,2.88494 2.76694,2.88552 2.60852,0.55837 6.94453,0.96393 7.15452,-2.64836 1.71746,-0.80557 1.07728,-3.63356 -0.25693,-4.38757 0.1045,-3.05973 -3.52244,-4.7152 -6.18609,-4.52593 z"
       id="path2306"
       style="fill:#ffff00;stroke:none"
       inkscape:connector-curvature="0" />
    <path
       d="m 219.24697,276.29771 c -2.7878,0.19283 -6.06044,-0.23803 -8.26129,1.54158 -2.97488,0.22213 -5.56171,1.96065 -8.45893,2.29261 -0.89294,1.61693 -3.65692,1.16859 -4.50616,2.80647 -1.59239,-0.0728 -1.77424,1.98948 -3.51797,1.89733 -1.31956,0.70823 -1.75756,2.10836 -3.34009,2.37166 -4.09998,3.29054 -8.18026,7.18925 -10.88989,11.56186 -1.22905,0.39615 -0.5843,2.05356 -1.79851,2.47048 -0.49916,1.85393 -1.11073,3.56586 -2.11473,5.11884 -0.89639,2.89009 -0.21196,6.31563 -1.99615,8.6961 -0.31244,1.81995 1.61436,2.73299 1.22535,4.64451 0.18393,4.12607 1.19577,8.37582 3.08317,11.91761 1.45574,0.39734 1.35714,2.8337 2.83583,3.64807 4.37379,5.1821 10.97895,8.88288 17.9555,7.63929 4.05437,-0.33362 8.56661,0.36594 11.99691,-2.01811 4.1295,-1.35561 6.50043,-7.15145 4.72356,-10.98871 -1.1653,-0.33408 -0.61629,-2.34484 -2.11473,-2.58907 -0.86103,-1.4179 -1.86891,-3.04493 -3.95277,-2.58906 -2.29454,-0.30621 -5.85794,-0.0359 -5.43506,3.18198 -0.40718,2.0097 1.60303,3.5765 2.17402,4.96073 -3.40625,1.98394 -8.01376,2.03923 -11.83855,1.423 -3.74849,-0.86001 -6.83604,-3.87103 -8.59728,-6.97665 -1.20345,-0.28054 -0.32029,-2.44545 -1.73922,-2.88552 -0.64324,-4.51601 -0.89793,-9.64407 0.11858,-14.07187 1.51624,-1.44971 2.30134,-3.70041 4.30853,-4.94096 2.82452,-1.51801 5.36215,-3.84556 8.71586,-4.15041 2.18646,-1.61683 5.05775,-0.62993 7.39168,-1.89733 1.49865,-1.35478 0.90564,-4.01283 2.66812,-5.02002 1.46434,-3.29848 5.19964,-5.5114 8.18224,-7.41145 2.1,-1.49873 4.98214,-0.81365 6.97664,-2.11474 1.85878,-0.75209 5.00377,-1.04534 6.56161,0.55339 1.71081,0.38946 3.35542,0.77862 4.40734,2.05544 2.40288,0.69353 3.79998,3.71407 5.43506,5.43507 0.0875,1.55396 2.03377,2.16698 1.66016,3.9923 -0.20932,2.84137 2.79349,5.78198 1.00796,8.36011 -1.14129,2.72266 -1.45782,6.05408 -4.07136,8.00436 -1.29462,1.22166 -3.64347,3.17208 -5.356,2.27285 -0.2331,-2.03017 0.0381,-5.76652 -3.14246,-5.31648 -3.18082,-0.51951 -6.26082,3.45469 -4.07135,6.08727 0.70448,7.19655 9.95827,9.47729 15.43557,6.00821 1.61483,-0.4606 3.23287,-0.95782 3.71561,-2.76694 1.48594,-0.93576 2.77712,-2.1063 3.16222,-3.93301 2.34807,-2.04008 1.08896,-6.07027 2.86576,-8.51822 0.34293,-2.4761 0.70017,-5.63569 -0.88938,-7.56956 -0.0773,-3.68385 -1.93541,-7.24231 -3.91324,-10.05981 -2.83487,-3.72845 -6.39198,-7.4851 -10.5539,-9.76334 -2.14608,0.15019 -2.91297,-1.94817 -4.88168,-1.87757 -2.7651,-2.38557 -7.38298,-1.03041 -10.8305,-1.48644 l -0.33608,0.004 z"
       id="path2308"
       style="fill:#ffff00;stroke:none"
       inkscape:connector-curvature="0" />
  </g>
  <metadata
     id="metadata27">
    <rdf:RDF>
      <cc:Work>
        <dc:format>image/svg+xml</dc:format>
        <dc:type
           rdf:resource="http://purl.org/dc/dcmitype/StillImage" />
        <cc:license
           rdf:resource="http://creativecommons.org/licenses/publicdomain/" />
        <dc:publisher>
          <cc:Agent
             rdf:about="http://openclipart.org/">
            <dc:title></dc:title>
          </cc:Agent>
        </dc:publisher>
        <dc:title></dc:title>
        <dc:date>2013-05-08T18:40:59</dc:date>
        <dc:description />
        <dc:source></dc:source>
        <dc:creator>
          <cc:Agent>
            <dc:title>José María Fernández</dc:title>
          </cc:Agent>
        </dc:creator>
        <dc:subject>
          <rdf:Bag>
            <rdf:li>clip art</rdf:li>
            <rdf:li>clipart</rdf:li>
            <rdf:li>colour</rdf:li>
            <rdf:li>colour</rdf:li>
            <rdf:li>image</rdf:li>
            <rdf:li>key</rdf:li>
            <rdf:li>key</rdf:li>
            <rdf:li>media</rdf:li>
            <rdf:li>old</rdf:li>
            <rdf:li>old</rdf:li>
            <rdf:li>png</rdf:li>
            <rdf:li>public domain</rdf:li>
            <rdf:li>sign</rdf:li>
            <rdf:li>sign</rdf:li>
            <rdf:li>svg</rdf:li>
          </rdf:Bag>
        </dc:subject>
        <dc:contributor>
          <cc:Agent>
            <dc:title>Open Clip Art Library
StefanvonHalenbach
http://openclipart.org/detail/17259/golden-key-by-stefanvonhalenbach-17259</dc:title>
          </cc:Agent>
        </dc:contributor>
      </cc:Work>
      <cc:License
         rdf:about="http://creativecommons.org/licenses/publicdomain/">
        <cc:permits
           rdf:resource="http://creativecommons.org/ns#Reproduction" />
        <cc:permits
           rdf:resource="http://creativecommons.org/ns#Distribution" />
        <cc:permits
           rdf:resource="http://creativecommons.org/ns#DerivativeWorks" />
      </cc:License>
    </rdf:RDF>
  </metadata>
  <text
     xml:space="preserve"
     style="font-size:40px;font-style:normal;font-weight:normal;line-height:125%;letter-spacing:0px;word-spacing:0px;fill:#000000;fill-opacity:1;stroke:none;font-family:Bitstream Vera Sans"
     x="3.721108"
     y="-28.632849"
     id="text3068"
     sodipodi:linespacing="125%"><tspan
       sodipodi:role="line"
       id="tspan3070"
       x="3.721108"
       y="-28.632849"
       style="font-size:10px;font-style:normal;font-variant:normal;font-weight:normal;font-stretch:normal;font-family:Sans;-inkscape-font-specification:Sans">Based on</tspan><tspan
       sodipodi:role="line"
       x="3.721108"
       y="-16.132849"
       style="font-size:10px;font-style:normal;font-variant:normal;font-weight:normal;font-stretch:normal;font-family:Sans;-inkscape-font-specification:Sans"
       id="tspan3072">StefanvonHalenbach_golden_key.svg</tspan><tspan
       sodipodi:role="line"
       x="3.721108"
       y="-3.632849"
       style="font-size:10px;font-style:normal;font-variant:normal;font-weight:normal;font-stretch:normal;font-family:Sans;-inkscape-font-specification:Sans"
       id="tspan3074">from http://www.openclipart.org/</tspan></text>
</svg>
