<?xml version="1.0" encoding="UTF-8" standalone="no"?>
<!-- Created with Inkscape (http://www.inkscape.org/) -->

<svg
   xmlns:dc="http://purl.org/dc/elements/1.1/"
   xmlns:cc="http://creativecommons.org/ns#"
   xmlns:rdf="http://www.w3.org/1999/02/22-rdf-syntax-ns#"
   xmlns:svg="http://www.w3.org/2000/svg"
   xmlns="http://www.w3.org/2000/svg"
   xmlns:sodipodi="http://sodipodi.sourceforge.net/DTD/sodipodi-0.dtd"
   xmlns:inkscape="http://www.inkscape.org/namespaces/inkscape"
   width="320.99594"
   height="114.58232"
   id="svg2"
   version="1.1"
   inkscape:version="0.48.4 r9939"
   sodipodi:docname="New document 1">
  <defs
     id="defs4" />
  <sodipodi:namedview
     id="base"
     pagecolor="#ffffff"
     bordercolor="#666666"
     borderopacity="1.0"
     inkscape:pageopacity="0.0"
     inkscape:pageshadow="2"
     inkscape:zoom="0.98994949"
     inkscape:cx="213.56618"
     inkscape:cy="-48.009359"
     inkscape:document-units="px"
     inkscape:current-layer="layer1"
     showgrid="false"
     fit-margin-top="0"
     fit-margin-left="0"
     fit-margin-right="0"
     fit-margin-bottom="0"
     inkscape:window-width="1920"
     inkscape:window-height="1151"
     inkscape:window-x="1600"
     inkscape:window-y="0"
     inkscape:window-maximized="1" />
  <metadata
     id="metadata7">
    <rdf:RDF>
      <cc:Work
         rdf:about="">
        <dc:format>image/svg+xml</dc:format>
        <dc:type
           rdf:resource="http://purl.org/dc/dcmitype/StillImage" />
        <dc:title></dc:title>
      </cc:Work>
    </rdf:RDF>
  </metadata>
  <g
     inkscape:label="Layer 1"
     inkscape:groupmode="layer"
     id="layer1"
     transform="translate(-113.09091,-353.12383)">
    <g
       id="g2993">
      <path
         inkscape:connector-curvature="0"
         d="m 179.62835,437.73886 c -1.82779,-3.38188 -3.26532,-6.99593 -4.93081,-10.47178 -1.44861,-3.02324 -3.00068,-5.98569 -4.49694,-8.98099 -3.35756,-6.883 -6.16522,-14.138 -7.12319,-21.92717 -0.57096,-4.64242 -0.34443,-5.53359 -0.12535,-10.05193 0.72445,-3.3145 0.80135,-4.98673 2.54028,-7.87091 1.41693,-2.35011 3.11338,-3.75891 5.37208,-5.04307 7.37851,-4.19501 5.25748,-3.42458 11.45145,-4.33044 1.54065,0.0348 3.08552,-0.0254 4.62194,0.10428 6.75328,0.56989 13.49717,2.6529 19.52946,6.02879 1.64904,0.92286 3.20329,2.03612 4.80493,3.05418 1.56385,1.17136 3.16853,2.27989 4.69154,3.51407 2.53468,2.05399 7.68097,6.76756 9.99951,8.94233 5.50915,5.1675 10.87053,10.52088 16.23057,15.87143 7.24625,7.23853 14.64663,14.30931 22.55938,20.66935 4.82101,3.87498 6.66365,5.11367 11.61381,8.69465 7.61159,5.2439 15.59504,9.94254 24.13917,13.09923 5.68663,2.10096 6.56632,2.08455 12.40413,3.36755 8.25378,1.23104 16.63742,1.79734 24.89295,0.25578 5.33791,-0.99675 6.39294,-1.61517 11.4753,-3.47047 3.6826,-1.82165 6.54083,-3.0029 9.86652,-5.54659 0.33707,-0.25781 0.40564,-0.79263 0.68405,-1.12392 1.10945,-1.32014 2.41701,-2.43795 3.46686,-3.81529 2.66775,-3.49993 2.8831,-4.7306 4.56778,-8.79162 2.01482,-6.59644 2.762,-13.55486 2.32906,-20.49094 -0.29056,-4.65525 -0.7276,-6.307 -1.55368,-10.86923 -0.97251,-4.86886 -2.62477,-9.50666 -4.87017,-13.83764 -0.65738,-1.26796 -1.32186,-2.54204 -2.13288,-3.69842 -2.39743,-3.41833 -3.26921,-3.73929 -6.44858,-6.32117 -1.42351,-0.78425 -2.79762,-1.68682 -4.27053,-2.35277 -5.14839,-2.32775 -10.68093,-3.17969 -16.18713,-3.71665 -2.08013,-0.20286 -4.16485,-0.37131 -6.25234,-0.43749 -2.18674,-0.0693 -4.37527,0.0208 -6.5629,0.0312 -9.21014,0.4052 -18.32533,2.25364 -27.20644,4.90291 -5.44085,1.62301 -8.01607,2.66735 -13.35851,4.63573 -6.83742,2.85434 -13.50708,6.28333 -19.71625,10.54445 -1.02118,0.7008 -1.92019,1.59533 -2.88454,2.3868 -8.81861,7.23773 -3.03444,2.39486 -11.60422,9.65409 -9.75389,8.05178 -19.05958,16.72482 -28.06813,25.75087 -4.80745,5.09505 -9.81842,10.0478 -15.46811,14.01452 -3.20342,2.24916 -8.04628,4.90777 -11.06896,6.66208 -4.20375,2.00518 -8.58587,3.78005 -13.17425,4.33897 -1.96462,0.23932 -3.45371,0.16859 -5.40981,0.15369 -2.16708,-0.11142 -4.32555,-0.35467 -6.48201,-0.60519 -1.30081,-0.15111 -2.50984,-0.3118 -3.76496,-0.7072 -0.88221,-0.3687 -1.60608,-0.94558 -2.28688,-1.64123 0,0 3.9729,-2.67941 3.9729,-2.67941 l 0,0 c 0.61072,0.65616 1.29338,1.15558 2.10968,1.47061 3.25605,0.96519 6.699,0.98363 10.03837,1.3119 2.01604,0.009 3.29497,0.0782 5.32551,-0.18806 4.53134,-0.59414 8.85577,-2.36283 13.00405,-4.36689 0.0163,0.10634 -0.0395,0.36676 0.0488,0.31904 2.31833,-1.25267 5.55329,-3.59745 7.60864,-5.25 4.17294,-3.35515 8.0414,-7.15573 11.73083,-11.12352 9.05368,-9.07692 18.42867,-17.77456 28.23622,-25.86466 1.84198,-1.56002 9.75223,-8.30692 11.62053,-9.69507 9.19494,-6.83186 18.90152,-12.91772 29.34907,-17.13802 5.41537,-1.98313 7.86147,-2.97654 13.37629,-4.60607 8.91569,-2.63442 18.06162,-4.46605 27.30253,-4.85253 2.20174,-0.009 4.40436,-0.0974 6.6052,-0.0281 2.10068,0.0662 4.19873,0.23218 6.29215,0.43432 5.57305,0.5381 11.16543,1.40518 16.37289,3.77046 1.49575,0.67939 2.89011,1.60044 4.33516,2.40066 3.18202,2.58324 4.18314,3.00519 6.57977,6.43685 0.81641,1.169 1.47184,2.4656 2.1283,3.74974 2.24282,4.38731 3.86465,9.08036 4.85159,13.99251 0.84314,4.61426 1.27328,6.22832 1.59194,10.93569 0.47275,6.98351 -0.2284,13.98982 -2.20731,20.65401 -1.66385,4.11243 -1.88972,5.40091 -4.5444,8.95888 -3.45716,4.63349 -6.16004,6.05242 -11.20879,9.53114 -4.33584,2.98749 -5.1432,3.14786 -9.87857,5.43997 -5.10036,1.81427 -6.14727,2.41795 -11.49715,3.37685 -8.28258,1.48456 -16.68627,0.89316 -24.95477,-0.37999 -2.07359,-0.46844 -4.16864,-0.83472 -6.22078,-1.40531 -10.87203,-3.02295 -20.92326,-8.71469 -30.35648,-15.239 -5.01221,-3.66023 -6.69652,-4.79903 -11.58801,-8.74591 -7.91092,-6.38322 -15.32113,-13.45147 -22.57042,-20.70574 -5.36981,-5.34084 -10.74254,-10.68421 -16.28541,-15.81106 -2.4571,-2.27268 -7.4039,-6.70766 -10.07568,-8.83975 -1.52489,-1.21686 -3.12412,-2.3179 -4.68618,-3.47685 -1.60455,-0.99653 -3.16504,-2.08337 -4.81364,-2.98959 -6.03092,-3.31514 -12.74285,-5.38015 -19.48386,-5.83996 -1.53747,-0.10487 -3.08089,-0.01 -4.62133,-0.0151 -1.3764,0.23615 -2.73709,0.76851 -4.1292,0.70844 -0.27078,-0.0117 0.3666,-0.98102 0.1112,-0.88184 -1.12721,0.43774 -2.13829,1.21186 -3.07122,2.03132 -3.04597,2.67549 -4.34487,6.44622 -5.07946,10.51162 -0.28744,4.48552 -0.53479,5.3792 -0.006,9.99832 0.88756,7.75701 3.69161,14.97459 7.09169,21.78049 1.52081,2.98553 3.08882,5.94231 4.58745,8.94125 1.70939,3.42073 3.21365,6.99179 5.23261,10.21556 0,0 -4.01764,2.57788 -4.01764,2.57788 z"
         id="path2991"
         style="opacity:0.75;color:#000000;fill:#ff7f2a;fill-opacity:1;fill-rule:nonzero;stroke:none;stroke-width:4;marker:none;visibility:visible;display:inline;overflow:visible;enable-background:accumulate" />
      <text
         transform="matrix(0.99933694,0.03640982,-0.03640982,0.99933694,0,0)"
         sodipodi:linespacing="125%"
         id="text2985"
         y="383.48318"
         x="286.4361"
         style="font-size:48px;font-style:normal;font-variant:normal;font-weight:normal;font-stretch:normal;line-height:125%;letter-spacing:0px;word-spacing:0px;fill:#008000;fill-opacity:1;stroke:none;font-family:Droid Sans;-inkscape-font-specification:Droid Sans"
         xml:space="preserve"><tspan
           style="text-align:center;text-anchor:middle;fill:#008000"
           y="383.48318"
           x="286.4361"
           id="tspan2987"
           sodipodi:role="line">Sample Project</tspan><tspan
           style="text-align:center;text-anchor:middle;fill:#008000"
           id="tspan2989"
           y="443.48318"
           x="286.4361"
           sodipodi:role="line">Logotype</tspan></text>
    </g>
  </g>
</svg>
